<svg height="2046" width="720" xmlns="http://www.w3.org/2000/svg">
<rect height="2046" fill="#555" width="720"></rect>
<text fill="#7f7" font-family="Courier New" font-size="12" xml:space="preserve">
<tspan x="10" y="26"></tspan>
<tspan x="10" y="42">&gt; npmdoc-run-sequence@0.0.5 test /home/travis/build/npmdoc/node-npmdoc-run-sequence</tspan>
<tspan x="10" y="58">&gt; (set -e; export PORT=$(utility2 shServerPortRandom); utility2 test test.js)</tspan>
<tspan x="10" y="74"></tspan>
<tspan x="10" y="90"></tspan>
<tspan x="10" y="106">[MODE_BUILD=npmTest] - 2017-04-08T06:02:11Z - npm-testing /home/travis/build/npmdoc/node-npmdoc-\</tspan>
<tspan x="10" y="122">run-sequence</tspan>
<tspan x="10" y="138"></tspan>
<tspan x="10" y="154"></tspan>
<tspan x="10" y="170">covering $ /home/travis/.nvm/versions/node/v6.10.2/bin/node /home/travis/build/npmdoc/node-npmdo\</tspan>
<tspan x="10" y="186">c-run-sequence/test.js</tspan>
<tspan x="10" y="202">merging file:///home/travis/build/npmdoc/node-npmdoc-run-sequence/tmp/build/test-report.json to \</tspan>
<tspan x="10" y="218">test-report</tspan>
<tspan x="10" y="234">&gt; server listening on http-port 54211</tspan>
<tspan x="10" y="250">created apidoc file:///home/travis/build/npmdoc/node-npmdoc-run-sequence/tmp/build/apidoc.html</tspan>
<tspan x="10" y="266"></tspan>
<tspan x="10" y="282"></tspan>
<tspan x="10" y="298">browserTest - created electron entry-page /home/travis/build/npmdoc/node-npmdoc-run-sequence/tmp\</tspan>
<tspan x="10" y="314">/electron.15b4c27dc390.6473fdef311a7.html</tspan>
<tspan x="10" y="330"></tspan>
<tspan x="10" y="346">[node test-case 1 of 6 passed] - testCase_buildLib_default</tspan>
<tspan x="10" y="362">[node test-case 2 of 6 passed] - testCase_buildReadme_default</tspan>
<tspan x="10" y="378">[node test-case 3 of 6 passed] - testCase_buildTest_default</tspan>
<tspan x="10" y="394"></tspan>
<tspan x="10" y="410">browserTest - created electron entry-page /home/travis/build/npmdoc/node-npmdoc-run-sequence/tmp\</tspan>
<tspan x="10" y="426">/electron.15b4c27dc6c0.85f8c0f8a8c4a.html</tspan>
<tspan x="10" y="442"></tspan>
<tspan x="10" y="458">Xlib:  extension "RANDR" missing on display ":99.0".</tspan>
<tspan x="10" y="474">Xlib:  extension "RANDR" missing on display ":99.0".</tspan>
<tspan x="10" y="490">&gt; server listening on http-port 38100</tspan>
<tspan x="10" y="506">merging file:///home/travis/build/npmdoc/node-npmdoc-run-sequence/tmp/build/test-report.json to \</tspan>
<tspan x="10" y="522">test-report</tspan>
<tspan x="10" y="538">Xlib:  extension "RANDR" missing on display ":99.0".</tspan>
<tspan x="10" y="554">[5676:0408/060213:WARNING:audio_manager.cc(314)] Multiple instances of AudioManager detected</tspan>
<tspan x="10" y="570">[5676:0408/060213:WARNING:audio_manager.cc(275)] Multiple instances of AudioManager detected</tspan>
<tspan x="10" y="586">merging file:///home/travis/build/npmdoc/node-npmdoc-run-sequence/tmp/build/test-report.json to \</tspan>
<tspan x="10" y="602">test-report</tspan>
<tspan x="10" y="618">[5715:0408/060213:ERROR:sandbox_linux.cc(343)] InitializeSandbox() called with multiple threads \</tspan>
<tspan x="10" y="634">in process gpu-process. </tspan>
<tspan x="10" y="650">Xlib:  extension "RANDR" missing on display ":99.0".</tspan>
<tspan x="10" y="666">[5680:0408/060213:WARNING:audio_manager.cc(314)] Multiple instances of AudioManager detected</tspan>
<tspan x="10" y="682">[5680:0408/060213:WARNING:audio_manager.cc(275)] Multiple instances of AudioManager detected</tspan>
<tspan x="10" y="698">[5676:0408/060213:ERROR:browser_gpu_channel_host_factory.cc(131)] Failed to create channel.</tspan>
<tspan x="10" y="714">[5738:0408/060213:ERROR:sandbox_linux.cc(343)] InitializeSandbox() called with multiple threads \</tspan>
<tspan x="10" y="730">in process gpu-process. </tspan>
<tspan x="10" y="746">[5680:0408/060213:ERROR:browser_gpu_channel_host_factory.cc(131)] Failed to create channel.</tspan>
<tspan x="10" y="762"></tspan>
<tspan x="10" y="778">browserTest - opened url /home/travis/build/npmdoc/node-npmdoc-run-sequence/tmp/build/apidoc.htm\</tspan>
<tspan x="10" y="794">l</tspan>
<tspan x="10" y="810"></tspan>
<tspan x="10" y="826"></tspan>
<tspan x="10" y="842">browserTest - opened url http://127.0.0.1:54211?modeTest=1</tspan>
<tspan x="10" y="858"></tspan>
<tspan x="10" y="874">[5680:0408/060215:INFO:CONSOLE(248)] "----------|-----------|-----------|-----------|-----------\</tspan>
<tspan x="10" y="890">|</tspan>
<tspan x="10" y="906">File      |   % Stmts |% Branches |   % Funcs |   % Lines |</tspan>
<tspan x="10" y="922">----------|-----------|-----------|-----------|-----------|</tspan>
<tspan x="10" y="938">----------|-----------|-----------|-----------|-----------|</tspan>
<tspan x="10" y="954">All files |       100 |       100 |       100 |       100 |</tspan>
<tspan x="10" y="970">----------|-----------|-----------|-----------|-----------|</tspan>
<tspan x="10" y="986">", source: file:///home/travis/build/npmdoc/node-npmdoc-run-sequence/tmp/electron.15b4c27dc6c0.8\</tspan>
<tspan x="10" y="1002">5f8c0f8a8c4a.html (248)</tspan>
<tspan x="10" y="1018">[5680:0408/060215:INFO:CONSOLE(248)] "created coverage file:///tmp/build/coverage.html/index.htm\</tspan>
<tspan x="10" y="1034">l", source: file:///home/travis/build/npmdoc/node-npmdoc-run-sequence/tmp/electron.15b4c27dc6c0.\</tspan>
<tspan x="10" y="1050">85f8c0f8a8c4a.html (248)</tspan>
<tspan x="10" y="1066">[node test-case 4 of 6 passed] - testCase_buildApp_default</tspan>
<tspan x="10" y="1082"></tspan>
<tspan x="10" y="1098">browserTest - created screenCapture file:///home/travis/build/npmdoc/node-npmdoc-run-sequence/tm\</tspan>
<tspan x="10" y="1114">p/build/screenCapture.npmTest.browser.%2Fhome%2Ftravis%2Fbuild%2Fnpmdoc%2Fnode-npmdoc-run-sequen\</tspan>
<tspan x="10" y="1130">ce%2Ftmp%2Fbuild%2Fapidoc.html.png</tspan>
<tspan x="10" y="1146"></tspan>
<tspan x="10" y="1162">browserTest - created screenCapture file:///home/travis/build/npmdoc/node-npmdoc-run-sequence/tm\</tspan>
<tspan x="10" y="1178">p/build/screenCapture.npmTest.browser.%2Fhome%2Ftravis%2Fbuild%2Fnpmdoc%2Fnode-npmdoc-run-sequen\</tspan>
<tspan x="10" y="1194">ce%2Ftmp%2Fbuild%2Fapidoc.html.html</tspan>
<tspan x="10" y="1210"></tspan>
<tspan x="10" y="1226">browserTest - exit-code 0 - /home/travis/build/npmdoc/node-npmdoc-run-sequence/tmp/build/apidoc.\</tspan>
<tspan x="10" y="1242">html</tspan>
<tspan x="10" y="1258"></tspan>
<tspan x="10" y="1274">[node test-case 5 of 6 passed] - testCase_buildApidoc_default</tspan>
<tspan x="10" y="1290"></tspan>
<tspan x="10" y="1306">browserTest - created screenCapture file:///home/travis/build/npmdoc/node-npmdoc-run-sequence/tm\</tspan>
<tspan x="10" y="1322">p/build/screenCapture.npmTest.browser.%2F.png</tspan>
<tspan x="10" y="1338"></tspan>
<tspan x="10" y="1354">browserTest - created screenCapture file:///home/travis/build/npmdoc/node-npmdoc-run-sequence/tm\</tspan>
<tspan x="10" y="1370">p/build/screenCapture.npmTest.browser.%2F.html</tspan>
<tspan x="10" y="1386"></tspan>
<tspan x="10" y="1402">browserTest - exit-code 0 - http://127.0.0.1:54211?modeTest=1</tspan>
<tspan x="10" y="1418"></tspan>
<tspan x="10" y="1434"></tspan>
<tspan x="10" y="1450">browserTest - merged coverage from /home/travis/build/npmdoc/node-npmdoc-run-sequence/tmp/covera\</tspan>
<tspan x="10" y="1466">ge.npmTest.browser.%2F.json</tspan>
<tspan x="10" y="1482"></tspan>
<tspan x="10" y="1498"></tspan>
<tspan x="10" y="1514">browserTest - merging test-report from /home/travis/build/npmdoc/node-npmdoc-run-sequence/tmp/te\</tspan>
<tspan x="10" y="1530">st-report.npmTest.browser.%2F.json</tspan>
<tspan x="10" y="1546"></tspan>
<tspan x="10" y="1562">[node test-case 6 of 6 passed] - testCase_webpage_default</tspan>
<tspan x="10" y="1578">---------------------------------|-----------|-----------|-----------|-----------|</tspan>
<tspan x="10" y="1594">File                             |   % Stmts |% Branches |   % Funcs |   % Lines |</tspan>
<tspan x="10" y="1610">---------------------------------|-----------|-----------|-----------|-----------|</tspan>
<tspan x="10" y="1626">   node-npmdoc-run-sequence/     |       100 |       100 |       100 |       100 |</tspan>
<tspan x="10" y="1642">      example.js                 |       100 |       100 |       100 |       100 |</tspan>
<tspan x="10" y="1658">      lib.npmdoc_run_sequence.js |       100 |       100 |       100 |       100 |</tspan>
<tspan x="10" y="1674">      test.js                    |       100 |       100 |       100 |       100 |</tspan>
<tspan x="10" y="1690">---------------------------------|-----------|-----------|-----------|-----------|</tspan>
<tspan x="10" y="1706">All files                        |       100 |       100 |       100 |       100 |</tspan>
<tspan x="10" y="1722">---------------------------------|-----------|-----------|-----------|-----------|</tspan>
<tspan x="10" y="1738"></tspan>
<tspan x="10" y="1754">created coverage file:///home/travis/build/npmdoc/node-npmdoc-run-sequence/tmp/build/coverage.ht\</tspan>
<tspan x="10" y="1770">ml/index.html</tspan>
<tspan x="10" y="1786">merging file:///home/travis/build/npmdoc/node-npmdoc-run-sequence/tmp/build/test-report.json to \</tspan>
<tspan x="10" y="1802">test-report</tspan>
<tspan x="10" y="1818"></tspan>
<tspan x="10" y="1834">-------------------------------------------------------</tspan>
<tspan x="10" y="1850">| test-report - buildNpmdoc - node - linux v6.10.2 - 2017-04-08T06:01:33.346Z</tspan>
<tspan x="10" y="1866">|   53569 ms            0 failed        6 passed      |</tspan>
<tspan x="10" y="1882">-------------------------------------------------------</tspan>
<tspan x="10" y="1898"></tspan>
<tspan x="10" y="1914">created test-report file:///home/travis/build/npmdoc/node-npmdoc-run-sequence/tmp/build/test-rep\</tspan>
<tspan x="10" y="1930">ort.html</tspan>
<tspan x="10" y="1946"></tspan>
<tspan x="10" y="1962"></tspan>
<tspan x="10" y="1978">npmTest - 0 failed tests</tspan>
<tspan x="10" y="1994"></tspan>
<tspan x="10" y="2010"></tspan>
<tspan x="10" y="2026">[MODE_BUILD=npmTest] - 2017-04-08T06:02:30Z - EXIT_CODE - 0</tspan>
</text>
</svg>
